<svg width="1024" height="1024" viewBox="0 0 1024 1024" fill="none" xmlns="http://www.w3.org/2000/svg">
<path fill-rule="evenodd" clip-rule="evenodd" d="M444.94 760.879C623.847 760.879 768.879 615.847 768.879 436.94C768.879 410.239 765.649 384.293 759.558 359.471C826.736 412.572 869.845 494.782 869.845 587.06C869.845 747.19 740.034 877 579.905 877C476.575 877 385.87 822.947 334.523 741.574C368.983 754.067 406.166 760.879 444.94 760.879ZM283.436 717.811C265.774 677.822 255.965 633.587 255.965 587.06C255.965 408.153 400.998 263.121 579.905 263.121C638.716 263.121 693.867 278.793 741.409 306.189C748.935 323.229 755.035 341.04 759.558 359.471C710.163 320.427 647.756 297.121 579.905 297.121C419.776 297.121 289.965 426.931 289.965 587.06C289.965 643.86 306.298 696.845 334.523 741.574C316.715 735.118 299.634 727.145 283.436 717.811ZM283.436 717.811C186.353 661.867 121 557.036 121 436.94C121 258.033 266.033 113 444.94 113C577.32 113 691.154 192.407 741.409 306.189C838.492 362.133 903.845 466.964 903.845 587.06C903.845 765.967 758.812 911 579.905 911C447.525 911 333.69 831.593 283.436 717.811Z" fill="url(#paint0_linear_31_51)"/>
<defs>
<linearGradient id="paint0_linear_31_51" x1="235" y1="183.5" x2="773.5" y2="852.5" gradientUnits="userSpaceOnUse">
<stop offset="0.0001" stop-color="#F92D23"/>
<stop offset="1" stop-color="#F66E54"/>
</linearGradient>
</defs>
</svg>
